<?xml version="1.0" encoding="UTF-8"?>
<svg xmlns="http://www.w3.org/2000/svg" width="1440" height="900"
     viewBox="0 0 1440 900" font-family="Arial, Helvetica, sans-serif">

  <rect x="0" y="0" width="1440" height="900" fill="#f2f2f2"/>

  <!-- ===== Navbar ===== -->
  <rect x="0" y="0" width="1440" height="64" fill="#ffffff" stroke="#d6d6d6"/>
  <rect x="120" y="20" width="26" height="26" rx="7" fill="#9e9e9e"/>
  <rect x="156" y="27" width="72" height="13" rx="3" fill="#9e9e9e"/>
  <rect x="268" y="20" width="96" height="26" rx="6" fill="#dcdcdc"/>
  <text x="285" y="37" font-size="11" fill="#5c5c5c">Dashboard</text>
  <rect x="376" y="20" width="106" height="26" rx="6" fill="#f2f2f2"/>
  <text x="391" y="37" font-size="11" fill="#8c8c8c">Transactions</text>
  <circle cx="1160" cy="32" r="16" fill="#9e9e9e"/>
  <text x="1153" y="36" font-size="10" fill="#ffffff">NL</text>
  <rect x="1186" y="26" width="90" height="12" rx="3" fill="#cfcfcf"/>
  <rect x="1288" y="18" width="72" height="28" rx="6" fill="#ffffff" stroke="#c4c4c4"/>
  <text x="1303" y="36" font-size="11" fill="#6b6b6b">Logout</text>

  <!-- ===== Greeting ===== -->
  <rect x="120" y="96" width="320" height="22" rx="4" fill="#bdbdbd"/>
  <rect x="120" y="128" width="200" height="11" rx="3" fill="#d6d6d6"/>
  <text x="456" y="114" font-size="12" fill="#8c8c8c">Greeting + today's date</text>

  <!-- ===== 4 summary cards ===== -->
  <rect x="120" y="168" width="282" height="112" rx="12" fill="#ffffff" stroke="#d6d6d6"/>
  <circle cx="146" cy="196" r="5" fill="#9e9e9e"/>
  <rect x="160" y="191" width="104" height="10" rx="3" fill="#cfcfcf"/>
  <rect x="144" y="216" width="150" height="20" rx="4" fill="#bdbdbd"/>
  <rect x="144" y="246" width="120" height="9" rx="3" fill="#e0e0e0"/>
  <text x="144" y="272" font-size="10" fill="#8c8c8c">Total Balance</text>

  <rect x="418" y="168" width="282" height="112" rx="12" fill="#ffffff" stroke="#d6d6d6"/>
  <circle cx="444" cy="196" r="5" fill="#9e9e9e"/>
  <rect x="458" y="191" width="86" height="10" rx="3" fill="#cfcfcf"/>
  <rect x="442" y="216" width="150" height="20" rx="4" fill="#bdbdbd"/>
  <rect x="442" y="246" width="88" height="9" rx="3" fill="#e0e0e0"/>
  <text x="442" y="272" font-size="10" fill="#8c8c8c">Money In (this month)</text>

  <rect x="716" y="168" width="282" height="112" rx="12" fill="#ffffff" stroke="#d6d6d6"/>
  <circle cx="742" cy="196" r="5" fill="#9e9e9e"/>
  <rect x="756" y="191" width="92" height="10" rx="3" fill="#cfcfcf"/>
  <rect x="740" y="216" width="150" height="20" rx="4" fill="#bdbdbd"/>
  <rect x="740" y="246" width="88" height="9" rx="3" fill="#e0e0e0"/>
  <text x="740" y="272" font-size="10" fill="#8c8c8c">Money Out (this month)</text>

  <rect x="1014" y="168" width="282" height="112" rx="12" fill="#ffffff" stroke="#d6d6d6"/>
  <circle cx="1040" cy="196" r="5" fill="#9e9e9e"/>
  <rect x="1054" y="191" width="100" height="10" rx="3" fill="#cfcfcf"/>
  <rect x="1038" y="216" width="60" height="20" rx="4" fill="#bdbdbd"/>
  <rect x="1038" y="246" width="96" height="9" rx="3" fill="#e0e0e0"/>
  <text x="1038" y="272" font-size="10" fill="#8c8c8c">Total Transactions</text>

  <!-- ===== Bar chart card ===== -->
  <rect x="120" y="300" width="760" height="300" rx="12" fill="#ffffff" stroke="#d6d6d6"/>
  <rect x="148" y="328" width="220" height="14" rx="4" fill="#bdbdbd"/>
  <text x="148" y="364" font-size="11" fill="#8c8c8c">Spending - last 6 months (CSS bars)</text>

  <!-- Baseline -->
  <rect x="148" y="548" width="704" height="1" fill="#d6d6d6"/>
  <!-- Bars -->
  <rect x="180" y="470" width="72" height="78"  rx="6" fill="#bdbdbd"/>
  <rect x="292" y="500" width="72" height="48"  rx="6" fill="#bdbdbd"/>
  <rect x="404" y="452" width="72" height="96"  rx="6" fill="#bdbdbd"/>
  <rect x="516" y="396" width="72" height="152" rx="6" fill="#9e9e9e"/>
  <rect x="628" y="384" width="72" height="164" rx="6" fill="#9e9e9e"/>
  <rect x="740" y="488" width="72" height="60"  rx="6" fill="#bdbdbd"/>
  <!-- Month labels -->
  <rect x="198" y="562" width="36" height="9" rx="3" fill="#d6d6d6"/>
  <rect x="310" y="562" width="36" height="9" rx="3" fill="#d6d6d6"/>
  <rect x="422" y="562" width="36" height="9" rx="3" fill="#d6d6d6"/>
  <rect x="534" y="562" width="36" height="9" rx="3" fill="#d6d6d6"/>
  <rect x="646" y="562" width="36" height="9" rx="3" fill="#d6d6d6"/>
  <rect x="758" y="562" width="36" height="9" rx="3" fill="#d6d6d6"/>

  <!-- ===== Quick actions card ===== -->
  <rect x="896" y="300" width="400" height="300" rx="12" fill="#ffffff" stroke="#d6d6d6"/>
  <rect x="924" y="328" width="150" height="14" rx="4" fill="#bdbdbd"/>
  <text x="924" y="364" font-size="11" fill="#8c8c8c">Quick Actions</text>
  <rect x="924" y="382" width="344" height="44" rx="8" fill="#9e9e9e"/>
  <text x="1058" y="409" font-size="12" fill="#ffffff">Send Money</text>
  <rect x="924" y="438" width="344" height="44" rx="8" fill="#c4c4c4"/>
  <text x="1070" y="465" font-size="12" fill="#4a4a4a">Pay Bill</text>
  <rect x="924" y="494" width="344" height="44" rx="8" fill="#ffffff" stroke="#c4c4c4"/>
  <text x="1030" y="521" font-size="12" fill="#6b6b6b">Download Statement</text>

  <!-- ===== Recent activity table ===== -->
  <rect x="120" y="620" width="1176" height="262" rx="12" fill="#ffffff" stroke="#d6d6d6"/>
  <rect x="148" y="648" width="170" height="14" rx="4" fill="#bdbdbd"/>
  <rect x="1206" y="650" width="62" height="10" rx="3" fill="#cfcfcf"/>
  <text x="1206" y="676" font-size="10" fill="#8c8c8c">View all</text>

  <!-- Table header -->
  <rect x="148" y="684" width="1120" height="30" fill="#f2f2f2"/>
  <rect x="162" y="694" width="46" height="9" rx="3" fill="#bdbdbd"/>
  <rect x="320" y="694" width="84" height="9" rx="3" fill="#bdbdbd"/>
  <rect x="700" y="694" width="46" height="9" rx="3" fill="#bdbdbd"/>
  <rect x="940" y="694" width="60" height="9" rx="3" fill="#bdbdbd"/>
  <rect x="1130" y="694" width="52" height="9" rx="3" fill="#bdbdbd"/>
  <text x="162" y="676" font-size="10" fill="#8c8c8c">Date / Description / Type / Amount / Status</text>

  <!-- 5 rows -->
  <rect x="148" y="714" width="1120" height="1" fill="#e0e0e0"/>
  <rect x="162" y="724" width="64" height="9" rx="3" fill="#d6d6d6"/>
  <rect x="320" y="724" width="190" height="9" rx="3" fill="#d6d6d6"/>
  <rect x="700" y="720" width="70" height="16" rx="8" fill="#ededed"/>
  <rect x="940" y="724" width="84" height="9" rx="3" fill="#cfcfcf"/>
  <rect x="1130" y="720" width="76" height="16" rx="8" fill="#ededed"/>

  <rect x="148" y="745" width="1120" height="1" fill="#e0e0e0"/>
  <rect x="162" y="755" width="64" height="9" rx="3" fill="#d6d6d6"/>
  <rect x="320" y="755" width="220" height="9" rx="3" fill="#d6d6d6"/>
  <rect x="700" y="751" width="70" height="16" rx="8" fill="#ededed"/>
  <rect x="940" y="755" width="84" height="9" rx="3" fill="#cfcfcf"/>
  <rect x="1130" y="751" width="76" height="16" rx="8" fill="#ededed"/>

  <rect x="148" y="776" width="1120" height="1" fill="#e0e0e0"/>
  <rect x="162" y="786" width="64" height="9" rx="3" fill="#d6d6d6"/>
  <rect x="320" y="786" width="170" height="9" rx="3" fill="#d6d6d6"/>
  <rect x="700" y="782" width="70" height="16" rx="8" fill="#ededed"/>
  <rect x="940" y="786" width="84" height="9" rx="3" fill="#cfcfcf"/>
  <rect x="1130" y="782" width="76" height="16" rx="8" fill="#ededed"/>

  <rect x="148" y="807" width="1120" height="1" fill="#e0e0e0"/>
  <rect x="162" y="817" width="64" height="9" rx="3" fill="#d6d6d6"/>
  <rect x="320" y="817" width="240" height="9" rx="3" fill="#d6d6d6"/>
  <rect x="700" y="813" width="70" height="16" rx="8" fill="#ededed"/>
  <rect x="940" y="817" width="84" height="9" rx="3" fill="#cfcfcf"/>
  <rect x="1130" y="813" width="76" height="16" rx="8" fill="#ededed"/>


  <rect x="148" y="838" width="1120" height="1" fill="#e0e0e0"/>
  <rect x="162" y="848" width="64" height="9" rx="3" fill="#d6d6d6"/>
  <rect x="320" y="848" width="200" height="9" rx="3" fill="#d6d6d6"/>
  <rect x="700" y="844" width="70" height="16" rx="8" fill="#ededed"/>
  <rect x="940" y="848" width="84" height="9" rx="3" fill="#cfcfcf"/>
  <rect x="1130" y="844" width="76" height="16" rx="8" fill="#ededed"/>

  <text x="720" y="896" font-size="12" fill="#9e9e9e" text-anchor="middle">
    WIREFRAME - DASHBOARD SCREEN (1440 x 900)
  </text>
</svg>
